<?xml version="1.0" encoding="UTF-8" ?>
<!DOCTYPE svg PUBLIC "-//W3C//DTD SVG 1.1//EN" "http://www.w3.org/Graphics/SVG/1.1/DTD/svg11.dtd">
<svg width="280pt" height="280pt" viewBox="0 0 280 280" version="1.1" xmlns="http://www.w3.org/2000/svg">
<g id="#fcfdfcff">
</g>
<g id="#5eb5eaff">
<path fill="#5eb5ea" opacity="1.00" d=" M 77.63 91.65 C 79.43 88.07 81.59 83.62 86.04 83.01 C 92.99 82.20 100.01 82.90 107.00 82.62 C 111.24 82.76 116.37 81.99 119.63 85.38 C 122.69 88.72 124.58 92.93 126.33 97.06 C 123.54 104.05 119.23 110.26 115.88 116.96 C 109.81 129.28 103.19 141.31 97.12 153.63 C 90.79 164.97 85.34 176.77 79.19 188.21 C 77.31 191.47 75.92 195.54 72.40 197.41 C 68.11 198.90 63.46 198.23 59.00 198.34 C 53.75 198.14 48.38 198.92 43.21 197.73 C 38.91 196.07 35.62 192.25 33.85 188.07 C 32.19 184.32 34.59 180.56 36.15 177.25 C 50.16 148.80 63.77 120.16 77.63 91.65 Z" />
<path fill="#5eb5ea" opacity="1.00" d=" M 159.91 90.93 C 161.80 87.68 163.91 83.63 168.03 83.02 C 174.98 82.16 182.02 82.92 189.00 82.60 C 193.03 82.72 197.80 81.97 200.98 85.04 C 205.04 89.05 206.82 94.65 209.43 99.60 C 219.96 122.34 231.00 144.84 241.48 167.60 C 243.80 172.87 246.98 177.80 248.57 183.37 C 249.96 188.60 245.85 193.12 242.03 196.06 C 238.37 199.01 233.37 198.25 229.00 198.37 C 223.05 198.12 217.04 198.84 211.13 197.90 C 207.81 197.41 205.62 194.57 204.25 191.74 C 199.64 182.10 194.74 172.59 190.13 162.95 C 187.33 157.59 185.02 151.97 181.76 146.87 C 179.35 149.32 178.13 152.60 176.52 155.58 C 171.14 165.89 165.81 176.23 160.62 186.64 C 158.29 190.69 156.44 195.97 151.67 197.69 C 145.55 199.03 139.22 198.04 133.00 198.37 C 128.54 198.23 122.87 199.36 119.80 195.21 C 116.54 190.72 113.86 185.70 112.16 180.41 C 114.70 176.49 117.13 172.50 119.27 168.35 C 126.78 154.01 134.45 139.76 141.73 125.30 C 148.18 114.05 153.77 102.35 159.91 90.93 Z" />
</g>
<g id="#9dd7f6ff">
<path fill="#9dd7f6" opacity="1.00" d=" M 126.33 97.06 C 131.69 106.34 135.74 116.37 141.73 125.30 C 134.45 139.76 126.78 154.01 119.27 168.35 C 117.13 172.50 114.70 176.49 112.16 180.41 C 106.50 171.85 102.97 162.07 97.12 153.63 C 103.19 141.31 109.81 129.28 115.88 116.96 C 119.23 110.26 123.54 104.05 126.33 97.06 Z" />
</g>
</svg>
